<svg width="89" height="61" viewBox="0 0 89 61" fill="none" xmlns="http://www.w3.org/2000/svg">
<path fill-rule="evenodd" clip-rule="evenodd" d="M35.6369 0.514335C35.2445 -0.171439 34.2633 -0.171439 33.8708 0.514335L11.4412 39.7066C11.2842 39.9809 11.4805 40.3238 11.7944 40.3238H24.4085C24.7728 40.3238 25.1094 40.1277 25.2915 39.8094L33.7688 24.9966C34.1613 24.3108 35.1425 24.3108 35.535 24.9966L37.1491 27.8171C37.3312 28.1353 37.3312 28.5275 37.1491 28.8457L25.6646 48.9132H25.6525L19.6183 59.457C19.2259 60.1428 19.7165 61 20.5014 61H68.4873C69.2723 61 69.7628 60.1428 69.3704 59.457L63.3362 48.9132H63.3354L51.7489 28.6676C51.5668 28.3493 51.5668 27.9572 51.7489 27.6389L53.2611 24.9966C53.6536 24.3109 54.6347 24.3109 55.0272 24.9966L63.7861 40.3015L63.7883 40.3002L75.3404 60.4857C75.5225 60.8039 75.8591 61 76.2234 61H87.9788C88.7638 61 89.2543 60.1428 88.8619 59.457L55.1292 0.514335C54.7367 -0.171439 53.7555 -0.171451 53.3631 0.514335L44.8532 15.384C44.6962 15.6583 44.3038 15.6583 44.1468 15.384L35.6369 0.514335ZM44.0448 41.1007C44.2018 40.8264 44.5943 40.8264 44.7513 41.1007L48.3393 47.3702C48.7317 48.0559 48.2411 48.9132 47.4562 48.9132H41.3399C40.5549 48.9132 40.0643 48.0559 40.4568 47.3702L44.0448 41.1007Z" fill="white"/>
<path d="M19.817 49.3761C19.9739 49.1017 19.7777 48.7589 19.4637 48.7589H6.84935C6.48506 48.7589 6.14845 48.9549 5.96629 49.2732L0.13813 59.457C-0.254339 60.1428 0.23625 61 1.02119 61H12.5759C12.9402 61 13.2768 60.8039 13.459 60.4857L19.817 49.3761Z" fill="white"/>
</svg>